<svg width="42" height="33" viewBox="0 0 42 33" fill="none" xmlns="http://www.w3.org/2000/svg">
<path d="M40.906 9.3708C40.5958 9.10035 40.2122 8.92818 39.804 8.87616C39.3957 8.82413 38.9813 8.8946 38.6131 9.07861L29.9833 13.3755L22.7783 1.40783C22.5931 1.10073 22.3317 0.846703 22.0194 0.670365C21.7071 0.494028 21.3546 0.401367 20.996 0.401367C20.6373 0.401367 20.2848 0.494028 19.9725 0.670365C19.6602 0.846703 19.3988 1.10073 19.2136 1.40783L12.0086 13.3806L3.38221 9.08377C3.01499 8.90139 2.60208 8.83154 2.1953 8.88297C1.78851 8.93441 1.40599 9.10484 1.09572 9.37289C0.785444 9.64093 0.561252 9.99465 0.451273 10.3896C0.341293 10.7846 0.350427 11.2033 0.477527 11.5931L6.8369 31.0769C6.90084 31.2726 7.00793 31.4515 7.15025 31.6003C7.29258 31.7491 7.46651 31.8641 7.65921 31.9367C7.8519 32.0093 8.05845 32.0376 8.26358 32.0197C8.46872 32.0018 8.66721 31.938 8.8444 31.8331C8.88737 31.8074 13.2822 29.2756 20.996 29.2756C28.7097 29.2756 33.1046 31.8074 33.1441 31.8314C33.3213 31.9373 33.5202 32.002 33.7258 32.0205C33.9315 32.0391 34.1387 32.011 34.332 31.9386C34.5254 31.8661 34.6999 31.751 34.8427 31.6018C34.9855 31.4526 35.0928 31.2732 35.1567 31.0769L41.5161 11.5983C41.6469 11.2084 41.6587 10.7884 41.55 10.3917C41.4414 9.99504 41.2172 9.63967 40.906 9.3708ZM29.2185 23.2256C29.1623 23.5437 28.996 23.8319 28.7487 24.0396C28.5014 24.2474 28.1888 24.3614 27.8658 24.3617C27.7852 24.3616 27.7047 24.3547 27.6252 24.3411C23.2332 23.5871 18.7449 23.5871 14.353 24.3411C14.1751 24.3725 13.9928 24.3685 13.8165 24.3294C13.6402 24.2904 13.4733 24.2169 13.3253 24.1134C13.0265 23.9042 12.8231 23.5848 12.7597 23.2256C12.6964 22.8664 12.7783 22.4968 12.9875 22.198C13.1967 21.8992 13.516 21.6957 13.8752 21.6324C18.5833 20.8234 23.3949 20.8234 28.103 21.6324C28.2815 21.6629 28.4522 21.7284 28.6053 21.8251C28.7584 21.9218 28.8909 22.0478 28.9952 22.1958C29.0995 22.3439 29.1735 22.511 29.213 22.6878C29.2525 22.8645 29.2567 23.0473 29.2253 23.2256H29.2185Z" fill="white"/>
</svg>
