<svg width="19" height="16" viewBox="0 0 19 16" fill="none" xmlns="http://www.w3.org/2000/svg">
<path d="M18.5498 4.95201C18.4088 4.82908 18.2345 4.75082 18.0489 4.72718C17.8633 4.70353 17.6749 4.73556 17.5076 4.8192L13.585 6.77233L10.31 1.33248C10.2258 1.19289 10.107 1.07743 9.96501 0.997272C9.82307 0.917118 9.66282 0.875 9.49981 0.875C9.3368 0.875 9.17656 0.917118 9.03461 0.997272C8.89267 1.07743 8.77384 1.19289 8.68966 1.33248L5.41466 6.77467L1.49356 4.82155C1.32664 4.73865 1.13896 4.7069 0.954055 4.73028C0.769155 4.75366 0.595278 4.83113 0.454246 4.95297C0.313213 5.0748 0.211308 5.23558 0.161317 5.41513C0.111327 5.59467 0.115478 5.78498 0.173251 5.96217L3.06388 14.8184C3.09294 14.9074 3.14161 14.9887 3.20631 15.0563C3.271 15.124 3.35006 15.1762 3.43765 15.2092C3.52524 15.2422 3.61912 15.2551 3.71237 15.247C3.80561 15.2388 3.89583 15.2099 3.97638 15.1622C3.99591 15.1505 5.99356 13.9997 9.49981 13.9997C13.0061 13.9997 15.0037 15.1505 15.0217 15.1614C15.1023 15.2095 15.1926 15.2389 15.2861 15.2473C15.3796 15.2558 15.4738 15.243 15.5617 15.2101C15.6495 15.1771 15.7289 15.1248 15.7938 15.057C15.8587 14.9892 15.9075 14.9077 15.9365 14.8184L18.8272 5.96451C18.8866 5.78727 18.892 5.59636 18.8426 5.41606C18.7932 5.23576 18.6913 5.07423 18.5498 4.95201ZM13.2373 11.2497C13.2118 11.3943 13.1362 11.5252 13.0238 11.6197C12.9114 11.7141 12.7693 11.7659 12.6225 11.7661C12.5858 11.766 12.5492 11.7629 12.5131 11.7567C10.5168 11.414 8.47662 11.414 6.48028 11.7567C6.39944 11.771 6.31658 11.7692 6.23643 11.7514C6.15628 11.7336 6.08041 11.7003 6.01316 11.6532C5.87735 11.5581 5.78486 11.4129 5.75606 11.2497C5.72726 11.0864 5.7645 10.9184 5.85959 10.7826C5.95468 10.6467 6.09982 10.5543 6.26309 10.5255C8.40314 10.1577 10.5902 10.1577 12.7303 10.5255C12.8114 10.5393 12.889 10.5691 12.9586 10.6131C13.0282 10.657 13.0884 10.7143 13.1358 10.7816C13.1832 10.8489 13.2169 10.9249 13.2348 11.0052C13.2528 11.0855 13.2547 11.1686 13.2404 11.2497H13.2373Z" fill="#B1060F"/>
</svg>
