<svg width="17" height="15" viewBox="0 0 17 15" fill="none" xmlns="http://www.w3.org/2000/svg">
<path d="M8.63498 0.49992H8.36832L6.17665 4.87492H10.8267L8.63498 0.49992ZM12.2183 4.87492H16.5183L14.7933 1.42492C14.6553 1.14724 14.4426 0.913562 14.1791 0.750153C13.9156 0.586743 13.6117 0.500084 13.3017 0.49992H10.0267L12.2183 4.87492ZM16.3183 6.12492H9.12665V14.7499L16.3183 6.12492ZM7.87665 14.7499V6.12492H0.684985L7.87665 14.7499ZM4.78499 4.87492L6.96832 0.49992H3.70165C3.39158 0.500084 3.08771 0.586743 2.82419 0.750153C2.56067 0.913562 2.34797 1.14724 2.20999 1.42492L0.484985 4.87492H4.78499Z" fill="#B1060F"/>
</svg>
