<svg width="19" height="22" viewBox="0 0 19 22" fill="none" xmlns="http://www.w3.org/2000/svg">
<path d="M6.21618 16.6923C4.63305 17.176 3.01491 17.5375 1.3761 17.7735C1.07194 16.9328 0.940276 16.0397 0.98893 15.1472C1.03758 14.2548 1.26556 13.3812 1.65934 12.5782C1.70953 12.4728 1.7651 12.3691 1.82246 12.2655C1.90851 12.1118 2.00173 11.9617 2.09853 11.8151C2.2611 11.5721 2.44081 11.341 2.63631 11.1235C2.71519 11.0359 2.79586 10.9448 2.8819 10.8697C3.43921 10.3252 4.10741 9.90648 4.84124 9.64194C6.00737 9.25309 7.21358 8.99592 8.43723 8.87525L9.10946 8.79661L10.1115 8.68938C10.2412 8.67635 10.3699 8.65547 10.497 8.62683C10.7389 8.58892 10.956 8.45724 11.1011 8.26046C11.1199 8.23252 11.1367 8.20325 11.1513 8.17289L11.1728 8.12464C11.1996 8.05395 11.2201 7.98097 11.2337 7.90661C11.2597 7.74354 11.2699 7.57836 11.2642 7.41335C11.2642 7.33293 11.2642 7.2525 11.2642 7.17566C11.2534 6.94333 11.2337 6.7253 11.2068 6.52156C11.1805 6.33079 11.1434 6.14165 11.0957 5.95503C10.8035 4.85057 10.1313 4.32514 8.94454 4.30191C8.51477 4.30063 8.08596 4.34255 7.66461 4.42701C7.14475 4.52531 6.62848 4.65755 6.11758 4.80767C5.86303 4.88273 5.60848 4.96316 5.35572 5.04716C5.10296 5.13115 4.85199 5.21693 4.60102 5.3045C4.45623 5.35919 4.30503 5.39522 4.15108 5.41173C4.11883 5.41347 4.08652 5.41347 4.05428 5.41173C3.99382 5.41103 3.93365 5.40323 3.87501 5.3885C3.734 5.3498 3.61138 5.26239 3.52904 5.14188C3.44753 5.01599 3.38699 4.87778 3.34978 4.73262C3.296 4.5539 3.22788 4.37518 3.17052 4.19647C3.149 4.1357 3.12749 4.07494 3.10777 4.01775C3.00201 3.68892 2.91238 3.40654 2.84784 3.16349C2.82155 3.06698 2.79825 2.97584 2.77793 2.89006C2.77793 2.84716 2.7618 2.80606 2.75283 2.76495C2.71747 2.59638 2.7084 2.42337 2.72594 2.25204C2.73374 2.19708 2.74756 2.14314 2.76718 2.0912C2.78586 2.04022 2.81053 1.99163 2.84067 1.94644C2.89106 1.87821 2.9515 1.81796 3.01993 1.76772C3.30855 1.53718 3.82303 1.3674 4.63329 1.13149C5.21684 0.962998 5.80857 0.824015 6.40619 0.715083L6.62848 0.675765C6.85256 0.638235 7.07484 0.606068 7.29892 0.577473L7.52299 0.552451C8.04623 0.494975 8.57231 0.466932 9.09871 0.468454C9.32279 0.468454 9.55045 0.468457 9.77632 0.488116C10.4637 0.526671 11.1467 0.622319 11.8181 0.774062C12.4384 0.908726 13.032 1.14485 13.5749 1.47284C13.6896 1.54254 13.799 1.61581 13.9065 1.69445C14.2756 1.96205 14.6024 2.28311 14.8763 2.647C15.4415 3.4164 15.7591 4.33874 15.787 5.292C15.8246 6.12124 15.8425 6.95405 15.8515 7.78508C15.8601 8.57639 15.6289 9.35187 15.1882 10.0101C14.3 11.3114 13.2304 12.4801 12.0117 13.4807C10.295 14.8983 8.33008 15.9871 6.21618 16.6923Z" fill="#B1060F"/>
<path d="M16.8212 19.649C16.8212 19.6776 16.8212 19.7062 16.8123 19.7331C16.8038 19.7864 16.7894 19.8386 16.7692 19.8887C16.7282 19.9884 16.6629 20.0764 16.5791 20.1445C16.5316 20.1836 16.4805 20.2183 16.4267 20.2483C16.3642 20.2839 16.2988 20.3144 16.2313 20.3395L15.7202 20.5434C15.2109 20.7528 14.7035 20.9621 14.1888 21.157C12.9569 21.6222 12.8278 21.5578 12.3274 20.3073C12.3153 20.2759 12.3009 20.2454 12.2844 20.2161C12.1923 20.0524 12.0458 19.9258 11.8702 19.8583C11.7558 19.8151 11.6336 19.7968 11.5115 19.8046C11.4506 19.8096 11.3904 19.8216 11.3322 19.8404C11.3017 19.8499 11.2717 19.8612 11.2426 19.8744C11.1826 19.9018 11.1261 19.936 11.074 19.9764L10.9772 20.0533C10.8821 20.1284 10.7871 20.2035 10.6902 20.2751C10.5344 20.3961 10.3716 20.5078 10.2025 20.6096C10.034 20.7119 9.85976 20.8045 9.68067 20.8869C9.41132 21.0123 9.13251 21.1164 8.84683 21.1982C8.3681 21.3378 7.87456 21.4206 7.3764 21.4451L7.07514 21.4558C6.67452 21.4588 6.27438 21.4277 5.87907 21.3628C5.78045 21.3467 5.68182 21.327 5.58499 21.3073C5.38953 21.2662 5.19765 21.2161 5.00757 21.1588C4.81749 21.1016 4.63279 21.0336 4.44989 20.9585C4.2664 20.8855 4.08684 20.8031 3.91192 20.7116C3.22485 20.3571 2.62571 19.8541 2.15817 19.2393C1.94695 18.9546 1.76152 18.6516 1.60406 18.3341C3.93524 19.191 6.96217 20.123 9.49418 19.2751C11.646 18.5595 13.9933 16.9835 15.9946 15.0621C16.0215 15.3663 16.0591 15.6704 16.1057 15.9745C16.1936 16.5541 16.3084 17.1319 16.4339 17.708C16.5397 18.1856 16.6527 18.6633 16.7638 19.1391C16.7909 19.2473 16.81 19.3573 16.8212 19.4683C16.8252 19.5285 16.8252 19.5888 16.8212 19.649Z" fill="#B1060F"/>
<path d="M15.9143 14.0232C15.9 13.6964 15.8731 13.43 15.8839 13.1636C15.8839 13.0731 15.9806 12.986 16.0469 12.8955C16.6221 12.185 17.2009 11.4657 17.7582 10.7287C17.7241 10.7553 17.6865 10.7802 17.6542 10.8104C16.9375 11.4871 16.2207 12.1619 15.504 12.8439C15.4625 12.891 15.4075 12.9243 15.3463 12.9396C15.2852 12.9548 15.2208 12.9512 15.1618 12.9292C14.6887 12.7995 14.2085 12.6859 13.6978 12.558L18.5627 9.78383C18.2975 11.0857 18.0413 12.3449 17.7797 13.6183C17.3908 13.5153 17.0253 13.4229 16.6615 13.3164C16.6104 13.2923 16.5517 13.289 16.4981 13.3073C16.4445 13.3256 16.4003 13.3639 16.3748 13.4141C16.2387 13.6076 16.0917 13.7888 15.9143 14.0232Z" fill="#B1060F"/>
<path d="M2.08844 18.0622C2.08844 18.0622 9.44428 19.643 15.1541 13.6715C15.147 13.6715 10.9685 20.965 2.08844 18.0622Z" fill="#B1060F"/>
</svg>
