<svg width="131" height="28" viewBox="0 0 131 28" fill="none" xmlns="http://www.w3.org/2000/svg">
<path d="M42.4094 17.7839C42.4094 15.2299 41.3876 13.952 39.344 13.9501C37.4257 13.9501 36.4675 15.228 36.4694 17.7839V26.1078C36.4686 26.442 36.3353 26.7623 36.0987 26.9984C35.8621 27.2345 35.5416 27.367 35.2073 27.367H31.9793C31.6451 27.367 31.3245 27.2345 31.0879 26.9984C30.8513 26.7623 30.718 26.442 30.7173 26.1078V17.7839C30.7173 15.2299 29.8872 13.952 28.2269 13.9501C26.6956 13.9501 25.6093 14.5895 24.968 15.8684V26.1078C24.968 26.4418 24.8354 26.7621 24.5992 26.9982C24.3631 27.2344 24.0428 27.367 23.7088 27.367H20.4808C20.3152 27.3674 20.1511 27.3351 19.998 27.272C19.8449 27.2089 19.7058 27.1162 19.5886 26.9992C19.4713 26.8822 19.3783 26.7433 19.3149 26.5903C19.2514 26.4374 19.2187 26.2734 19.2188 26.1078V9.46002C19.2187 9.29441 19.2514 9.13044 19.3149 8.97748C19.3783 8.82452 19.4713 8.68558 19.5886 8.56861C19.7058 8.45164 19.8449 8.35894 19.998 8.29582C20.1511 8.23271 20.3152 8.20041 20.4808 8.20078H23.7088C24.0428 8.20078 24.3631 8.33345 24.5992 8.5696C24.8354 8.80576 24.968 9.12605 24.968 9.46002V10.1163C26.2469 8.84115 27.6491 8.20265 29.1748 8.20078C30.9996 8.20078 32.4692 8.98699 33.5835 10.5594C34.681 8.98512 36.661 8.19891 39.5235 8.20078C45.2728 8.20078 48.1474 11.3952 48.1474 17.7839V26.1078C48.1474 26.2732 48.1148 26.4369 48.0516 26.5897C47.9883 26.7425 47.8955 26.8813 47.7786 26.9982C47.6617 27.1151 47.5228 27.2079 47.3701 27.2712C47.2173 27.3345 47.0535 27.367 46.8882 27.367H43.6686C43.3346 27.367 43.0143 27.2344 42.7782 26.9982C42.542 26.7621 42.4094 26.4418 42.4094 26.1078V17.7839Z" fill="#B1060F"/>
<path d="M61.761 8.19373C66.8708 8.19373 69.4257 11.3881 69.4257 17.7769C69.4257 24.1656 66.8708 27.36 61.761 27.36C60.8734 27.3845 59.9902 27.2269 59.1659 26.897C58.3416 26.5671 57.5936 26.0718 56.968 25.4417V25.6857C56.968 26.132 56.7907 26.56 56.4752 26.8755C56.1596 27.1911 55.7316 27.3684 55.2853 27.3684H52.7416C52.3377 27.3684 51.9504 27.208 51.6648 26.9224C51.3792 26.6368 51.2188 26.2494 51.2188 25.8455V2.04897C51.2195 1.64557 51.3803 1.25894 51.6658 0.973951C51.9513 0.688964 52.3382 0.528901 52.7416 0.528902H55.2965C55.7428 0.528902 56.1708 0.706188 56.4864 1.02176C56.802 1.33733 56.9792 1.76534 56.9792 2.21163V10.1205C57.6031 9.49062 58.349 8.99484 59.1712 8.66353C59.9935 8.33222 60.8747 8.17235 61.761 8.19373ZM63.6764 17.7769C63.6764 15.2229 62.7182 13.9449 60.8018 13.943C58.8854 13.9412 57.6075 14.5806 56.968 15.8614V19.6924C57.6075 20.9712 58.8854 21.6107 60.8018 21.6107C62.7182 21.6107 63.6764 20.3327 63.6764 17.7769Z" fill="#B1060F"/>
<path d="M78.2421 1.81338V4.99093C78.2421 5.33234 78.1064 5.65977 77.865 5.90118C77.6236 6.14259 77.2962 6.27822 76.9548 6.27822H73.7773C73.6083 6.27822 73.4411 6.2449 73.2851 6.18017C73.129 6.11544 72.9873 6.02058 72.868 5.90101C72.7487 5.78144 72.6541 5.6395 72.5898 5.48334C72.5254 5.32718 72.4924 5.15984 72.4928 4.99093V1.81338C72.4928 1.47271 72.6281 1.146 72.869 0.905112C73.1099 0.664225 73.4366 0.528902 73.7773 0.528902H76.9548C77.2957 0.528901 77.6227 0.664134 77.864 0.904941C78.1054 1.14575 78.2413 1.47246 78.2421 1.81338ZM72.4844 26.0671V9.4754C72.4844 9.13448 72.6196 8.80747 72.8604 8.56614C73.1012 8.32481 73.4279 8.18886 73.7688 8.18812H76.9464C77.2876 8.18886 77.6145 8.32472 77.8558 8.56597C78.0971 8.80722 78.2329 9.13422 78.2337 9.4754V26.0671C78.2329 26.4083 78.0971 26.7353 77.8558 26.9765C77.6145 27.2178 77.2876 27.3536 76.9464 27.3544H73.7773C73.6077 27.3551 73.4397 27.3224 73.2829 27.258C73.1261 27.1936 72.9835 27.0989 72.8634 26.9793C72.7433 26.8597 72.6479 26.7176 72.5829 26.561C72.5179 26.4045 72.4844 26.2366 72.4844 26.0671Z" fill="#B1060F"/>
<path d="M123.126 17.7839C123.126 24.1727 120.25 27.367 114.499 27.367C108.748 27.367 105.873 24.1727 105.875 17.7839C105.875 11.3951 108.75 8.20078 114.499 8.20078C120.248 8.20078 123.124 11.3951 123.126 17.7839ZM114.499 21.6177C116.417 21.6177 117.376 20.3398 117.376 17.7839C117.376 15.228 116.417 13.9501 114.499 13.9501C112.584 13.9501 111.627 15.228 111.627 17.7839C111.627 20.3398 112.584 21.6177 114.499 21.6177Z" fill="#B1060F"/>
<path d="M93.4182 20.8394C92.4179 21.3763 91.2942 21.6413 90.1594 21.6079C88.5019 21.6079 87.6689 20.9656 87.6689 19.6924V13.9402H93.421V8.18812H87.6661V0.528902L81.9141 2.4416V19.6924C81.9141 24.8022 84.6616 27.3563 90.1566 27.3544C91.4354 27.3544 92.8377 26.9758 94.3774 26.2073L93.4182 20.8394Z" fill="#B1060F"/>
<path d="M103.749 1.81338V4.99093C103.75 5.15985 103.717 5.32718 103.652 5.48334C103.588 5.63951 103.493 5.78144 103.374 5.90101C103.255 6.02059 103.113 6.11545 102.957 6.18018C102.801 6.2449 102.634 6.27822 102.465 6.27822H99.2873C99.1181 6.27859 98.9506 6.24555 98.7942 6.18099C98.6379 6.11643 98.4958 6.02162 98.3762 5.90201C98.2566 5.7824 98.1618 5.64034 98.0972 5.48399C98.0327 5.32765 97.9996 5.16008 98 4.99093V1.81338C98 1.64447 98.0333 1.47721 98.0981 1.32118C98.1628 1.16516 98.2576 1.02343 98.3772 0.904123C98.4968 0.784811 98.6387 0.690254 98.7949 0.625868C98.951 0.561482 99.1184 0.528536 99.2873 0.528905H102.465C102.805 0.528905 103.132 0.664228 103.373 0.905116C103.614 1.146 103.749 1.47272 103.749 1.81338ZM98.0112 26.0671V9.47541C98.0112 9.134 98.1469 8.80657 98.3883 8.56515C98.6297 8.32374 98.9571 8.18812 99.2985 8.18812H102.476C102.817 8.18886 103.144 8.32481 103.384 8.56614C103.625 8.80748 103.76 9.13448 103.76 9.47541V26.0671C103.76 26.408 103.625 26.735 103.384 26.9764C103.144 27.2177 102.817 27.3536 102.476 27.3544H99.2873C98.9478 27.3514 98.6233 27.2145 98.3843 26.9734C98.1453 26.7323 98.0112 26.4066 98.0112 26.0671Z" fill="#B1060F"/>
<path d="M129.717 20.3258H126.542C126.373 20.3258 126.206 20.3592 126.049 20.4241C125.893 20.489 125.751 20.5841 125.632 20.704C125.513 20.8238 125.418 20.9661 125.354 21.1226C125.29 21.2791 125.257 21.4467 125.258 21.6159V24.7906C125.257 24.9595 125.29 25.1269 125.355 25.283C125.419 25.4392 125.514 25.5811 125.633 25.7007C125.752 25.8203 125.894 25.9151 126.05 25.9799C126.206 26.0446 126.373 26.0779 126.542 26.0779H129.717C129.886 26.0783 130.054 26.0452 130.21 25.9807C130.366 25.9161 130.508 25.8213 130.628 25.7017C130.748 25.5821 130.842 25.44 130.907 25.2837C130.972 25.1273 131.005 24.9598 131.004 24.7906V21.6187C131.005 21.4491 130.972 21.2812 130.908 21.1243C130.844 20.9675 130.749 20.8249 130.629 20.7048C130.51 20.5847 130.367 20.4893 130.211 20.4243C130.054 20.3593 129.887 20.3258 129.717 20.3258Z" fill="#B1060F"/>
<path d="M5.10546 22.8309C3.56214 23.3039 1.98467 23.6574 0.387057 23.8882C0.0905382 23.066 -0.0378135 22.1927 0.0096174 21.32C0.0570483 20.4474 0.279296 19.5931 0.663171 18.808C0.712103 18.7049 0.766277 18.6035 0.822198 18.5021C0.906081 18.3519 0.996954 18.2051 1.09132 18.0618C1.24981 17.8242 1.425 17.5982 1.61559 17.3854C1.69248 17.2998 1.77112 17.2107 1.85501 17.1373C2.3983 16.6048 3.04971 16.1954 3.76509 15.9367C4.9019 15.5565 6.07779 15.305 7.27069 15.187L7.92602 15.1101L8.9029 15.0053C9.02927 14.9925 9.15475 14.9721 9.27863 14.9441C9.5145 14.907 9.72618 14.7783 9.86756 14.5858C9.88591 14.5585 9.90227 14.5299 9.91649 14.5002L9.93746 14.453C9.96366 14.3839 9.98355 14.3125 9.99688 14.2398C10.0222 14.0804 10.0322 13.9188 10.0266 13.7575C10.0266 13.6789 10.0266 13.6002 10.0266 13.5251C10.0161 13.2979 9.99687 13.0847 9.97066 12.8855C9.94496 12.6989 9.90879 12.514 9.86231 12.3315C9.57746 11.2515 8.92213 10.7377 7.76524 10.715C7.34627 10.7137 6.92824 10.7547 6.51749 10.8373C6.0107 10.9334 5.5074 11.0627 5.00935 11.2095C4.76119 11.2829 4.51304 11.3616 4.26663 11.4437C4.02023 11.5258 3.77557 11.6097 3.53091 11.6954C3.38976 11.7488 3.24235 11.7841 3.09228 11.8002C3.06084 11.8019 3.02934 11.8019 2.99791 11.8002C2.93897 11.7995 2.88031 11.7919 2.82315 11.7775C2.68568 11.7396 2.56614 11.6542 2.48587 11.5363C2.40641 11.4132 2.3474 11.2781 2.31112 11.1361C2.25869 10.9614 2.19228 10.7866 2.13636 10.6119C2.11539 10.5524 2.09442 10.493 2.0752 10.4371C1.97209 10.1156 1.88471 9.83944 1.8218 9.60177C1.79617 9.5074 1.77345 9.41828 1.75365 9.33439C1.75365 9.29245 1.73792 9.25225 1.72918 9.21206C1.6947 9.04722 1.68586 8.87805 1.70297 8.71051C1.71056 8.65677 1.72404 8.60402 1.74316 8.55323C1.76138 8.50338 1.78543 8.45587 1.81481 8.41167C1.86394 8.34496 1.92285 8.28604 1.98957 8.23692C2.27092 8.01148 2.77247 7.84546 3.56237 7.61478C4.13125 7.45002 4.7081 7.31412 5.2907 7.2076L5.5074 7.16915C5.72584 7.13245 5.94254 7.101 6.16098 7.07304L6.37943 7.04857C6.88952 6.99236 7.40236 6.96494 7.91553 6.96643C8.13398 6.96643 8.35592 6.96643 8.57611 6.98566C9.24622 7.02336 9.91202 7.11689 10.5666 7.26527C11.1712 7.39695 11.7499 7.62784 12.2792 7.94857C12.391 8.01673 12.4976 8.08837 12.6025 8.16527C12.9622 8.42694 13.2809 8.74089 13.5479 9.09672C14.0989 9.84907 14.4085 10.751 14.4357 11.6831C14.4724 12.494 14.4898 13.3084 14.4986 14.121C14.5069 14.8948 14.2816 15.6531 13.852 16.2967C12.9861 17.5692 11.9434 18.712 10.7553 19.6905C9.08172 21.0766 7.16623 22.1413 5.10546 22.8309Z" fill="#B1060F"/>
<path d="M15.4391 25.7128C15.4391 25.7407 15.4391 25.7687 15.4304 25.7949C15.4222 25.847 15.4081 25.898 15.3885 25.9469C15.3485 26.0444 15.2848 26.1303 15.2032 26.1968C15.1569 26.235 15.1071 26.2689 15.0547 26.2982C14.9937 26.333 14.93 26.3629 14.8642 26.3873L14.3661 26.5866C13.8698 26.791 13.3753 26.9955 12.8737 27.186C11.6732 27.6403 11.5473 27.5774 11.0598 26.3559C11.0479 26.3252 11.0339 26.2954 11.0178 26.2668C10.928 26.1068 10.7853 25.9832 10.6141 25.9172C10.5027 25.875 10.3835 25.8572 10.2646 25.8648C10.2052 25.8697 10.1466 25.8814 10.0899 25.8998C10.0601 25.909 10.0309 25.9201 10.0025 25.933C9.94411 25.9598 9.889 25.9932 9.83823 26.0326L9.74386 26.1077C9.65124 26.1811 9.55862 26.2545 9.46425 26.3244C9.31239 26.4426 9.15367 26.5518 8.98891 26.6512C8.82469 26.7511 8.6549 26.8415 8.48037 26.9221C8.21788 27.0446 7.94617 27.1462 7.66776 27.2262C7.20121 27.3625 6.72024 27.4435 6.23476 27.4673L5.94117 27.4778C5.55075 27.4808 5.16079 27.4504 4.77555 27.3869C4.67944 27.3712 4.58332 27.352 4.48895 27.3328C4.29847 27.2926 4.11148 27.2436 3.92624 27.1877C3.741 27.1318 3.561 27.0654 3.38275 26.992C3.20394 26.9207 3.02895 26.8402 2.85848 26.7508C2.1889 26.4045 1.60501 25.9131 1.14937 25.3126C0.94353 25.0344 0.762821 24.7385 0.609375 24.4283C2.8812 25.2654 5.83108 26.1759 8.29863 25.3475C10.3957 24.6485 12.6832 23.1089 14.6335 21.232C14.6597 21.5291 14.6964 21.8262 14.7419 22.1233C14.8275 22.6895 14.9393 23.2539 15.0617 23.8167C15.1648 24.2833 15.2749 24.7499 15.3832 25.2147C15.4096 25.3204 15.4282 25.4279 15.4391 25.5363C15.443 25.595 15.443 25.654 15.4391 25.7128Z" fill="#B1060F"/>
<path d="M14.5758 20.2238C14.5618 19.9022 14.5356 19.6401 14.5461 19.3779C14.5461 19.2888 14.6405 19.2032 14.7051 19.1141C15.2661 18.415 15.8305 17.7073 16.374 16.982C16.3408 17.0082 16.3041 17.0327 16.2727 17.0624C15.5736 17.7282 14.8746 18.3923 14.1756 19.0634C14.1351 19.1096 14.0814 19.1425 14.0218 19.1574C13.9622 19.1724 13.8994 19.1689 13.8418 19.1473C13.3805 19.0197 12.9121 18.9078 12.4141 18.782L17.1587 16.0523C16.9 17.3333 16.6501 18.5723 16.395 19.8253C16.0158 19.724 15.6593 19.6331 15.3045 19.5282C15.2546 19.5045 15.1974 19.5013 15.1451 19.5193C15.0929 19.5373 15.0497 19.575 15.0249 19.6243C14.8921 19.8148 14.7488 19.9931 14.5758 20.2238Z" fill="#B1060F"/>
<path d="M1.05469 24.1734C1.05469 24.1734 8.23191 25.7217 13.8031 19.8726C13.7961 19.8726 9.71908 27.0167 1.05469 24.1734Z" fill="#B1060F"/>
</svg>
